[CENTER]

[B][COLOR="red"][SIZE="4"]Paul (2011) IN HINDI DVDRip Dual Audio [Hin-Eng] -=Ghunio=-[/SIZE][/COLOR][/B]

[B][SIZE="5"][COLOR="red"]Original Audio[/COLOR][/SIZE][/B]

[img]http://www.desidl.com/images/wGl9r.jpg[/img]

[img]http://img29.imageshack.us/img29/1102/753ec787.png[/img]
[img]http://www.desidl.com/images/Xu7sn.jpg[/img]

[code]
General
Complete name                    : Paul (2011) IN HINDI DVDRip Dual Audio [Hin-Eng].mkv
Format                           : Matroska
Format version                   : Version 2
File size                        : 785 MiB
Duration                         : 1h 39mn
Overall bit rate                 : 1 104 Kbps
Encoded date                     : UTC 2011-09-05 16:21:44
Writing application              : mkvmerge v4.8.0 ('I Got The...') built on May 24 2011 03:12:58
Writing library                  : libebml v1.2.0 + libmatroska v1.1.0

Video
ID                               : 2
Format                           : MPEG-4 Visual
Format profile                   : Advanced Simple@L5
Format settings, BVOP            : Yes
Format settings, QPel            : No
Format settings, GMC             : No warppoints
Format settings, Matrix          : Default (H.263)
Codec ID                         : XVID
Codec ID/Hint                    : XviD
Duration                         : 1h 39mn
Bit rate                         : 826 Kbps
Width                            : 640 pixels
Height                           : 272 pixels
Display aspect ratio             : 2.35:1
Frame rate                       : 25.000 fps
Color space                      : YUV
Chroma subsampling               : 4:2:0
Bit depth                        : 8 bits
Scan type                        : Progressive
Compression mode                 : Lossy
Bits/(Pixel*Frame)               : 0.190
Stream size                      : 587 MiB (75%)
Writing library                  : XviD 62
Language                         : Hindi

Audio #1
ID                               : 1
Format                           : MPEG Audio
Format version                   : Version 1
Format profile                   : Layer 2
Muxing mode                      : Header stripping
Codec ID                         : A_MPEG/L2
Codec ID/Hint                    : MP2
Duration                         : 1h 39mn
Bit rate mode                    : Constant
Bit rate                         : 128 Kbps
Channel(s)                       : 2 channels
Sampling rate                    : 48.0 KHz
Compression mode                 : Lossy
Delay relative to video          : 48ms
Stream size                      : 91.0 MiB (12%)
Language                         : Hindi

Audio #2
ID                               : 3
Format                           : MPEG Audio
Format version                   : Version 1
Format profile                   : Layer 3
Mode                             : Joint stereo
Mode extension                   : MS Stereo
Muxing mode                      : Header stripping
Codec ID                         : A_MPEG/L3
Codec ID/Hint                    : MP3
Duration                         : 1h 40mn
Bit rate mode                    : Variable
Bit rate                         : 128 Kbps
Channel(s)                       : 2 channels
Sampling rate                    : 48.0 KHz
Compression mode                 : Lossy
Stream size                      : 91.8 MiB (12%)
Writing library                  : LAME3.90.
Encoding settings                : -m j -V 4 -q 2 -lowpass 17.6 --abr 128
Language                         : English

[/code]

[img]http://img651.imageshack.us/img651/3281/samplejc.png[/img]Here[/b][/size][/COLOR][/URL]

[img]http://img717.imageshack.us/img717/7057/imdb3.png[/img]
[url=http://www.imdb.com/title/tt1092026/]Paul (2011) - IMDb[/url]

[img]http://img688.imageshack.us/img688/493/f4685723.png[/img]
[img]http://img683.imageshack.us/img683/5831/allipaulrepackxvids.jpg[/img]


[img]http://img846.imageshack.us/img846/5237/o6z3tz.gif[/img]

[B][COLOR="red"][SIZE="5"]Super Seeding[/SIZE][/COLOR][/B][/CENTER]
